<svg width="513" height="294" viewBox="0 0 513 294" fill="none" xmlns="http://www.w3.org/2000/svg">
<path d="M128 293.2C128 292.6 128.5 291 129.1 289.8C129.9 287.9 133.5 286.2 147.8 281.2C157.5 277.8 165.8 275 166.2 275C166.6 275 166.5 276.1 165.8 277.5C165.1 279.1 163.1 280.5 159.8 281.6C155.9 282.9 138.6 289.7 129.3 293.7C128.6 294 128 293.7 128 293.2V293.2ZM322.1 293C316.1 291.6 310.8 286.9 307.2 280C305.3 276.4 303.7 273.4 303.5 273.2C303.3 273 299.6 274 295.1 275.4C271 283 250.6 279.9 237.7 266.7C231.8 260.7 226.6 251.1 224.9 242.9C222.8 233 225.4 211.3 229.6 204L231.1 201.5L230.6 204.5C230.3 206.2 229.3 210.9 228.4 215C223.8 236.4 233.7 254.1 254.1 261C259.7 262.9 262.1 263.2 273 262.8C281.8 262.5 288.1 261.6 294.1 260L302.7 257.7L303.4 251C304 243.8 308 228.8 310.6 223.8C311.8 221.5 312.2 217.1 312.3 205.1C312.5 189.1 308.2 120.9 306.9 118.9C306.4 118.1 303.9 118.7 298.5 120.9C294.3 122.7 290.6 123.9 290.3 123.7C290.1 123.4 293.8 121 298.5 118.4L307.2 113.5L306.6 107C306.3 103.4 305.6 92 305 81.5C304.4 71.1 303.5 60.4 302.9 57.9C302 54.1 302.2 52.5 304.1 47.4C305.3 44.2 306.6 41.1 307 40.7C307.7 39.9 319.6 69.7 320.7 75.1C321.4 78.9 319.9 78.8 316.5 74.9C315.1 73.2 313.7 71.9 313.5 72.1C312.8 72.9 315.4 108 316.2 108C317.5 108 327.8 101.3 332.8 97.2L337.1 93.7L334.1 91.2C329.6 87.7 328.7 85.6 330 81.5C331.4 77.3 337.2 72 340.6 72C344.3 72 345.5 75.5 344.1 82.1C342.9 87.3 343 87.6 345.4 89.5C347.8 91.4 347.8 91.6 346.3 94.7C344.8 97.8 344.7 97.9 342.4 96.3C340.1 94.8 339.8 94.9 334.1 100.3C330.8 103.3 325.4 107.4 322.1 109.5C318.5 111.6 316 113.8 316 114.8C316 115.7 316.9 128.7 318 143.5C321.2 187.8 320.5 202.3 314.5 217.3C311.2 225.8 307.4 240.7 306.5 249.3L305.8 256.2L308.2 255.5C312.6 254.1 328.5 245.8 335.3 241.2C342.6 236.4 353.4 226.9 355.1 223.9C355.8 222.5 354.9 219.8 351.1 212.2C348.4 206.8 344.7 198.1 342.9 192.9C341.1 187.7 339 182.7 338.1 181.7C336.8 180.2 336.8 178.9 337.8 172.8C338.5 168.8 339.3 165.4 339.6 165.1C340.2 164.5 357 181.1 357 182.4C357 182.9 355 183 352.6 182.7L348.1 182.1L349.7 185.8C350.5 187.8 352.7 192.5 354.5 196.1C361.5 210 362.4 219.4 357.9 231.5C354.5 240.6 338.4 254.5 318.7 265.4L311.8 269.2L314.6 272.1C320.5 278.2 329.8 279.4 341.7 275.4C355.5 270.8 377.9 256.6 390.5 244.7L398 237.5L397.4 232.5C396.6 225.4 394.3 217.6 390.8 209.6L387.8 202.7L389.5 196.3C390.5 192.8 391.6 189.7 392.1 189.5C392.5 189.2 393.8 190.7 395 193C398.1 199.1 400.7 200.4 409.1 199.8C413 199.5 416.6 198.8 417.2 198.2C417.8 197.6 417.8 196 417.1 193.4C414.2 183.1 416.7 172.4 424.5 161.6C429.8 154.2 434.8 150 438.5 150C443.8 150 449 160.7 449 171.6C449 178.1 446.8 187 444.1 191.5C443 193.5 442.2 195.6 442.5 196.1C442.9 196.6 447.9 197 453.8 197C465.3 197 470.6 195.5 474.5 191C477.6 187.6 477.5 178.4 474.1 130C472.4 106.1 470.6 78.8 470.1 69.4C469.7 60.1 468.8 51.5 468.2 50.3C467.5 49 467.4 47.2 467.9 45.4C469.4 40.4 472.2 34 472.9 34C473.6 34 483.3 59 485.6 66.7C487.1 71.7 486.1 72.2 482.3 68.4C480.9 67 479.5 66.1 479.2 66.5C478.9 66.8 480.1 88.3 481.9 114.3C485.4 163.7 485.5 175 482.5 186.5C478.9 200.2 472.4 209.5 464.4 212.6C458.6 214.8 444.4 213.9 434.6 210.6L427.7 208.2L420.1 212.3C414.1 215.6 411.5 216.4 407.4 216.4H402.3L401.7 226.5C400.5 245.6 397 254.1 386 264.2C371.9 277.2 352.9 288.6 339.2 292.1C331.3 294.1 327.6 294.3 322.1 293V293ZM434 189.9C439.1 186.9 443 182.9 443 180.9C443 177.8 439.1 168.4 437.1 166.6C434.6 164.3 432.7 165.3 426.1 172.5C420.1 179.2 419.1 181.9 421.7 185.3C423.4 187.6 428.9 192 430 192C430.3 192 432.1 191 434 189.9V189.9ZM340.8 83.4C341.2 80.4 338.7 77.6 336.2 78.4C333.4 79.3 333.4 82.5 336.2 84.4C338.9 86.3 340.4 86 340.8 83.4ZM202.3 288.1C201.7 285.4 200.1 281.1 198.8 278.4C196.8 274.2 196.1 273.5 193.9 273.8C192.2 273.9 190.6 273.2 189 271.5C186.7 269 186.7 268.9 188.3 265.5C190.4 261.1 192.8 261 196.9 265C199.9 268.1 204 277.3 204 281.2C204 285.3 205.6 281.6 207.4 273.5C209.3 265.2 212 259.6 214.5 258.6C217.8 257.4 221 260.6 221 265.3C221 268.6 220 269.3 217.9 267.4C215.6 265.3 212.8 266 211.3 269C210.7 270.4 209.2 275.8 208.1 281C205.5 292.9 203.9 294.8 202.3 288.1V288.1Z" fill="white"/>
<path d="M93 281.9C85.9 280.5 81 276.4 77 268.6L73.5 261.7V247.6C73.5 236 74 232.1 75.8 225.6C77.9 218.3 85.7 200 86.7 200C87.5 200 98 207.2 98.6 208.1C99.7 209.9 100.8 208.9 102.9 204C104.3 200.7 105.5 199.2 106.3 199.6C107 200 110.1 202.1 113.3 204.2C119.8 208.6 119.8 208.9 115.3 216.7L112.8 220.9L106.2 216.5L99.5 212L98.2 214.8C97.4 216.3 96.2 218.5 95.4 219.7L94 221.9L88.3 218C85.2 215.8 82.3 214 81.9 214C80.9 214 77 230.7 76.3 238.4C75.5 247.1 77.9 253.8 83.9 260C91.8 268.2 101.2 268.7 117.7 261.8C130.3 256.6 151.1 242.6 161.8 232.2C166.7 227.5 167 226.8 167 222.3C167 216 164.7 207.1 161 199.1C159.3 195.6 158 192.1 158 191.4C158 188.8 161.3 178 162.1 178C162.5 178 163.9 179.9 165.2 182.2C168 187.3 171 189 177 189C185 189 196 182.3 196 177.5C196 174.4 190.9 166.9 184.3 160.3C181.1 157.1 167.5 146 154.1 135.6L129.8 116.7L130.4 110.7C131.3 102.3 134 94.2999 136.9 91.2999C147.4 80.8999 204.2 52.8999 238.5 41.3999C245.7 38.9999 252.5 36.9999 253.8 36.9999C256.4 36.9999 256.6 35.5999 254.6 28.0999C253.3 23.1999 253.4 22.1999 255 17.3999C256.1 14.3999 257.3 11.1999 257.9 10.2999C259 8.19989 259.4 8.79989 267.1 29.3999C272.2 42.7999 273 46.5999 270.6 45.6999C269.5 45.2999 268.7 46.6999 267.4 50.6999C265.7 56.0999 265.7 57.4999 268.5 97.2999C271.4 140 271.4 150.3 268.5 161.5C265 174.8 257.5 185.7 250.3 188.1C245.6 189.6 236.3 188.6 230.6 185.9C228.1 184.8 222.6 180.8 218.4 177.2C202.5 163.4 196 158.5 196 160.3C196 160.4 196.9 162.9 198 165.8C202 176.4 199.9 187.5 192.4 195.9C186.3 202.7 181.9 205.3 176.6 205.2L172.3 205.1L171.6 214.1C170.1 234.4 167.3 241.9 157.5 251.4C136.9 271.5 108.6 284.9 93 281.9V281.9ZM251.6 171.5C254.3 170.7 257.9 168.9 259.5 167.6L262.5 165.2V150.8C262.4 135.2 258.1 70.9999 257 69.6999C256 68.4999 241.3 85.7999 237.6 92.4999L236 95.4999L236.6 92.4999C237.7 87.4999 244 76.8999 250.7 69.0999C257.3 61.2999 258.2 58.3999 256 52.5999C255.2 50.3999 254.7 50.1999 251.3 50.6999C232 53.4999 160.5 86.1999 138.3 102.4C136 104.1 134.1 105.7 134 106C134 106.3 136.6 107.8 139.8 109.4C161.8 120.1 187.8 136.7 209.5 154C225.9 167.1 229.7 169.4 237 171.4C244.1 173.3 245.6 173.3 251.6 171.5Z" fill="white"/>
<path d="M234.7 161.5C231.1 158 231.6 148.4 236 136.7C237.2 133.5 238.3 131 238.5 131.2C238.6 131.4 237.8 135.2 236.7 139.8C235.2 146.1 234.9 149 235.6 151.8C236.8 156.6 239.6 157.2 242.7 153.4L245 150.5L244 154C242.8 158.2 239.8 162.4 237.8 162.8C236.9 163 235.5 162.4 234.7 161.5V161.5ZM184.9 126.5C183.4 125.7 182 124.4 181.7 123.7C181.3 122.5 181.9 122.4 184.8 123.1C190.3 124.4 215 120.2 215 118C215 116.3 210.5 115.8 200.9 116.5C189.5 117.3 187 116.8 187 113.7C187 107.9 199.1 96 205 96C206.7 96 207.1 96.5 206.8 98.8C206.5 101.1 206.1 101.5 203.8 101.2C201 100.9 194.3 104.7 190.6 108.9C188 111.8 189.4 112.2 203 111.8L214.4 111.5L215.9 114.2C217.3 116.6 217.3 117.2 215.8 120.2C214.3 123.4 213.6 123.8 205.3 125.8C195.1 128.3 188.6 128.5 184.9 126.5V126.5ZM427.6 276.9C427.4 276.1 426.7 273.5 426 271C425.3 268.5 423.9 264.6 422.8 262.2C421 258.4 420.4 258 418.1 258.5C416.1 258.9 414.8 258.5 413.1 256.6L410.8 254.1L412.7 250.8C413.7 249 415.4 247.4 416.4 247.2C419.5 246.6 424.8 253.5 427.2 261.3L429.4 268.5L430.7 263C433.3 251.9 435 247.3 437.4 245.1C439.4 243.2 440.2 243 441.9 243.9C444.8 245.5 446.2 248.5 445.4 251.5C444.7 254.4 443.8 254.6 442 252.5C441.577 252.03 441.048 251.667 440.456 251.441C439.865 251.215 439.229 251.132 438.6 251.2C436.3 251.5 434.7 255.8 431.6 269.5C429.9 276.6 428.4 279.5 427.6 276.9ZM473.2 256.2C470.9 254.7 470 248.9 471 242.3C472 236.5 475.8 224.4 476.5 225.2C476.6 225.4 475.9 229.2 474.7 233.6C472.4 243.2 472.9 248.5 476.2 249.6C477.9 250.1 478.9 249.6 480.7 247.4L483 244.5L482 248C480.2 254.5 476.3 258.1 473.2 256.2ZM44.3 252.8C41.2 248.9 42.4 235.9 46.6 227.5C47.9 224.8 48.8 223.4 48.4 224.5C48.1 225.6 47.1 229.9 46.2 234.1C44.9 240.2 44.8 242.3 45.8 244.4C47.1 247.4 49.5 247.7 52.3 245.3C54.3 243.5 54.3 243.6 53.6 246.5C52.5 251.2 50.2 254 47.6 254C46.3 254 44.8 253.4 44.3 252.8V252.8ZM198.3 241.5C195.6 239.6 194.8 234.8 196 227.5C196.9 222.2 200.8 210.5 201.5 211.2C201.7 211.4 201 214.7 200 218.5C197.6 227.6 197.6 231.2 199.9 234.1L201.8 236.5L204.4 234.1C207.3 231.4 207.7 232.4 205.6 237.5C203.7 241.9 201 243.4 198.3 241.5V241.5ZM504.4 225.5C504.9 214.7 503.9 195 500 141C499 125.9 497.6 104.7 497 94C496.4 83.3 495.4 73 494.9 71.2C494 68.6 494.3 66.7 496 61.5C497.2 57.9 498.5 54.8 499 54.5C500.2 53.8 513 87 513 90.9C513 91.9 511.8 91.2 509.5 89C507.6 87.2 505.8 85.9 505.6 86.1C505.3 86.4 506.7 109.1 508.6 136.5C513.3 202.9 512.9 217.3 506 232.2L504 236.5L504.4 225.5V225.5ZM266.8 231.2C266.5 229.1 264.9 224.7 263.4 221.4C260.9 216.3 260.2 215.5 257.9 215.8C256.3 215.9 254.6 215.2 253.1 213.6C251 211.3 250.9 211.1 252.4 208.2C254.5 204 255.5 203.7 258.9 205.4C262.1 207.1 268 217.6 268 221.6C268 227 269.8 224.2 271.9 215.5C274.4 205.2 276.9 201 280.5 201C283.5 201 286.2 205.2 285.4 208.5C284.7 211.4 283.8 211.6 282 209.5C281.3 208.7 279.9 208 278.8 208C276.4 208 274.7 211.9 272.5 223C270 235.4 267.7 238.6 266.8 231.2V231.2ZM368.7 208.5C369 198.1 368.4 182.4 366.6 157C365.2 136.9 363.3 108.8 362.5 94.5C361.6 80.2 360.5 65.6 359.9 62C359.3 58.4 358.9 54.6 358.9 53.5C358.9 50.4 363.2 39.8 364.1 40.7C365.1 41.7 374.4 66 376.3 72.8C377.2 75.6 377.6 78 377.2 78C376.9 78 375.1 76.5 373.2 74.8L369.7 71.5L370.4 83.5C370.8 90.1 372.2 111.3 373.7 130.5C377 175.5 377.1 196.6 374.2 207.2C373 211.5 371.2 216.9 370.1 219.2L368.2 223.5L368.7 208.5V208.5ZM16.6 216.6C11 214.5 5.30001 208.5 2.90001 202C-0.999994 191.7 2.20001 173.5 11 156.1C14.5 149.1 14.5 149 12.5 149C10.2 149 9.00001 145.6 9.00001 139.2C9.00001 133.4 11.9 122 14.1 119C15 117.8 15.1 117.9 14.5 119.5C12.5 125.5 11 135.3 11.8 138.3C12.9 142.6 16 143 19 139.3L21.2 136.5L20.5 139.5C20.1 141.2 18.9 144 17.9 145.8C16.8 147.7 13.5 156.5 10.5 165.4C5.80001 179.2 5.00001 182.8 5.00001 188.9C5.00001 201.2 9.30001 205.7 20 204.7C28 204 32.1 201.6 46.7 188.9C53.7 182.8 63.3 175.1 68 171.7C78.1 164.3 95.4 155.3 101 154.4C103.2 154 105 153.5 105 153.1C105 152.8 103.7 148 102.1 142.5C100.5 137 98.7 129.1 98.1 125C97.4 120.9 96.4 116.3 95.9 114.9C95.1 112.8 95.3 111.2 97 107.1C98.3 104.3 99.5 102 99.9 102C101 102 113.3 123 112.7 123.7C112.3 124 110.8 123.8 109.4 123.1C107.9 122.5 106.5 122.1 106.3 122.4C105.7 123 108.6 135.5 110.7 141.5C111.5 143.7 113.3 146.7 114.8 148.3C117.9 151.6 125.9 156.2 131.2 158C133.3 158.6 135.4 159.8 135.8 160.6C136.5 161.9 135.3 173.7 134.4 174.8C134.3 175 131.2 174 127.6 172.6C118.8 169.1 107.7 168.2 99.3 170.3C86.5 173.6 76.9 179.6 52.6 199.2C30.7 216.9 25 219.6 16.6 216.6V216.6ZM285.9 164.4L279.2 159.8L282 153.6C283.6 150.3 285.4 147.6 286 147.8C286.7 147.9 289.9 149.9 293.2 152.1C298.2 155.5 299 156.5 298.4 158.3C297.8 160.2 293.1 169 292.7 169C292.6 169 289.5 166.9 285.9 164.4Z" fill="white"/>
<path d="M43.8 140.5C43.5 135 42 124.6 40.5 117.3C37.8 104.3 37.7 104.2 39.6 100.3C40.8 97.8999 42.8 95.8999 45.3 94.6999C49.3 92.6999 49.4 90.9999 45.5 90.9999C44.1 90.9999 42.6 91.8999 42 93.0999C41.3 94.1999 40.6 94.9999 40.4 94.6999C39.5 93.7999 42 86.1999 43.6 84.4999C45.5 82.5999 44.8 78.8999 40.9 70.0999C38.4 64.4999 37.8 63.7999 35.7 64.3999C34.1 64.7999 32.6 64.1999 30.7 62.3999L27.9 59.7999L29.8 56.6999C30.8 54.8999 32.5 53.3999 33.7 53.1999C36.9 52.6999 42.4 59.8999 44.5 67.0999C45.4 70.4999 46.4 72.9999 46.6 72.6999C46.9 72.4999 48 68.4999 49.1 63.8999C51 55.6999 54.8 48.9999 57.4 48.9999C59.3 48.9999 63 53.3999 63 55.5999C63 56.5999 62.5 58.1999 62 58.9999C61.1 60.2999 60.8 60.2999 59.6 58.7999C58.2 56.8999 54.5 56.3999 53.5 57.8999C52.1 60.2999 47.1 82.4999 47.9 82.7999C50 83.4999 57 89.0999 57.9 90.7999C59.8 94.2999 56.1 98.3999 49.4 100.2C39.6 103 39.7 102.9 42.6 114C45.4 124.6 46.8 141.5 45.3 147C44.5 150 44.3 149.2 43.8 140.5V140.5ZM421.9 135.2C420 133.7 417.3 131.8 415.9 130.9L413.5 129.3L416.4 123.1C418 119.8 419.7 117 420 117C420.4 117 423.5 119 427.1 121.5L433.5 125.9L436.1 120.9L438.6 115.9L445.1 120.2C448.6 122.6 451.6 125.2 451.8 126C451.9 126.8 450.7 129.8 449 132.7L446 137.9L439.4 133.4C435.8 130.8 432.7 128.9 432.6 129.1C432.4 129.3 431.3 131.4 430.1 133.8C428.9 136.1 427.4 138 426.7 137.9C426.1 137.9 423.9 136.7 421.9 135.2V135.2ZM68.6 134.8C65.7 130.6 66.7 120.7 71.2 109.2C74 102.1 74.4 103.1 71.9 111C69.5 118.8 69.6 127.7 72.2 129.4C73.5 130.2 74.5 129.9 76.5 128C79.4 125.3 79.4 125.4 77.9 130.1C75.6 136.9 71.5 139 68.6 134.8V134.8ZM388.5 117.3C389.1 116.7 394.9 113.1 401.5 109.3C413 102.5 426 93.4999 426 92.1999C426 91.8999 424.4 90.1999 422.5 88.3999C418.4 84.6999 418 81.3999 421 76.4999C423.6 72.2999 429.4 69.0999 431.8 70.5999C433.8 71.8999 434.5 77.3999 433.2 82.1999C432.4 85.0999 432.6 85.7999 434.8 87.5999C437.2 89.5999 437.3 89.8999 436.1 92.8999C434.6 96.3999 433.8 96.6999 432 94.4999C431.3 93.6999 430.5 92.9999 430.1 92.9999C429.7 92.9999 426.7 95.5999 423.4 98.7999C420.1 101.9 414.9 106 411.8 107.8C404 112.4 385.9 119.7 388.5 117.3ZM430 80.4999C430 76.4999 428.3 75.2999 425.1 76.9999C422.2 78.4999 422.5 80.6999 425.8 82.3999C429.7 84.5999 430 84.3999 430 80.4999ZM395.6 80.7999C392.7 76.6999 394 64.9999 398.4 54.7999C400.8 49.1999 401 50.1999 398.9 57.0999C397 63.0999 396.4 71.2999 397.6 74.3999C398.5 76.6999 402.7 76.3999 404 73.8999C405.7 70.7999 406.2 72.1999 404.9 76.0999C402.6 82.8999 398.5 84.9999 395.6 80.7999V80.7999ZM94 78.9999C92 76.9999 91.8 75.9999 92.2 68.5999C92.6 63.4999 93.6 58.2999 95 54.6999C96.3 51.5999 97.4 49.0999 97.6 49.2999C97.8 49.3999 97.2 52.2999 96.4 55.4999C94.4 62.9999 94.2 70.2999 95.9 72.3999C97.8 74.5999 98.7 74.3999 101.7 71.2999L104.3 68.4999L103.5 70.9999C102.2 75.4999 100.5 78.2999 98.3 79.6999C96.4 80.9999 95.9 80.8999 94 78.9999V78.9999ZM134 59.1999C134 54.4999 135.6 53.5999 169.3 41.1999C187.6 34.4999 202.8 28.9999 203.2 28.9999C203.6 28.9999 203.5 30.0999 202.9 31.3999C202.1 33.1999 198.9 34.7999 189.2 38.4999C179 42.2999 140.7 57.3999 135.3 59.6999C134.6 59.9999 134 59.6999 134 59.1999ZM432.6 51.3999C431.7 50.5999 431 48.4999 431 46.6999C431 42.0999 433.9 31.2999 437 24.3999C440.8 15.7999 444 14.1999 440.5 22.5999C439.1 26.0999 439.1 26.0999 443 29.9999C447.2 34.1999 447.8 36.2999 446.9 42.8999C445.8 50.6999 437 55.8999 432.6 51.3999V51.3999ZM442.1 44.2999C446.1 41.8999 445.7 39.4999 441 36.3999C436 33.0999 434.9 33.8999 434.2 40.8999C433.8 45.8999 433.8 45.9999 436.5 45.9999C438 45.9999 440.5 45.1999 442.1 44.2999ZM121.2 39.6999C120 35.6999 118 30.8999 116.9 29.0999C115.3 26.3999 114.7 25.9999 113.4 26.9999C112.2 27.9999 111.5 27.8999 109.7 26.3999C106.2 23.3999 106.1 22.8999 107.8 19.2999C109.8 15.1999 112.6 14.9999 116.3 18.7999C119.3 21.8999 122.9 29.4999 123 32.6999C123 37.7999 124.9 35.3999 126.5 28.1999C129.3 15.7999 132.5 11.0999 137 12.4999C139.7 13.3999 141.4 18.2999 140 20.9999L138.8 23.1999L136.9 21.0999C135.8 19.8999 134.5 18.9999 134 18.9999C132.1 18.9999 129.9 23.9999 128 32.9999C126.8 38.0999 125.4 43.2999 124.7 44.5999C123.5 46.7999 123.3 46.5999 121.2 39.6999V39.6999ZM219.2 35.6999C217.1 33.1999 217 29.2999 218.9 21.6999C221.4 12.1999 225.7 2.29994 227.7 1.59994C228.8 1.09994 229 1.39994 228.5 2.69994C225.6 9.89994 225.6 9.99994 228.8 13.2999C234.1 18.9999 234.9 22.0999 232.9 29.2999C231.3 35.1999 222.3 39.3999 219.2 35.6999V35.6999ZM228.8 27.9999C230.5 26.8999 232 25.5999 232 25.0999C232 23.7999 224.9 17.9999 223.4 17.9999C221.2 17.9999 218.9 27.5999 220.7 29.2999C221.9 30.5999 225.5 29.9999 228.8 27.9999V27.9999ZM286.1 35.5999C283.1 31.9999 283.9 21.7999 288 10.6999C289.2 7.49994 290.3 4.99994 290.5 5.19994C290.7 5.39994 290 8.69994 288.9 12.4999C286.8 20.2999 286.5 25.1999 288 28.0999C289.4 30.6999 292.5 30.4999 294.4 27.7999C295.8 25.8999 296 25.7999 296 27.2999C296 29.4999 293.2 35.1999 291.6 36.1999C289.8 37.3999 287.3 37.0999 286.1 35.5999ZM329.8 27.7999C329.5 24.8999 328 21.1999 326.2 18.2999C324.1 14.9999 323.3 12.6999 323.7 11.1999C324.4 8.39994 324.8 8.39994 329.7 11.9999C336.4 16.8999 343.9 18.9999 354.9 18.9999C367 18.9999 374.8 17.0999 387.3 11.3999C393.2 8.69994 398.3 6.99994 399.8 7.19994C402.1 7.49994 402.5 7.99994 402.8 11.2999C403.1 15.1999 401.2 18.3999 391.9 28.9999L388.9 32.4999L390.5 29.0999C391.4 27.2999 394 23.7999 396.2 21.3999C400.4 16.8999 400.7 13.9999 397.2 13.9999C396.1 13.9999 392.3 15.2999 388.7 16.9999C375.7 22.8999 365.6 25.2999 353.5 25.2999C344.6 25.3999 341.5 24.9999 337.3 23.2999L332 21.1999L331.9 24.7999C331.9 26.8999 331.5 29.3999 331.1 30.4999C330.5 31.9999 330.2 31.2999 329.8 27.7999V27.7999Z" fill="white"/>
</svg>
